<?xml version="1.0" standalone="no"?>
<!DOCTYPE svg PUBLIC "-//W3C//DTD SVG 20010904//EN"
 "http://www.w3.org/TR/2001/REC-SVG-20010904/DTD/svg10.dtd">
<svg version="1.0" xmlns="http://www.w3.org/2000/svg"
 width="600.000000pt" height="600.000000pt" viewBox="0 0 600.000000 600.000000"
 preserveAspectRatio="xMidYMid meet">

<g transform="translate(0.000000,600.000000) scale(0.100000,-0.100000)"
fill="#000000" stroke="none">
<path d="M2763 5864 c-493 -59 -952 -317 -1265 -709 -290 -363 -434 -813 -415
-1295 32 -777 419 -1729 1134 -2784 212 -313 608 -833 702 -921 43 -41 116
-43 156 -5 43 39 279 337 421 530 675 919 1149 1832 1329 2563 151 613 121
1098 -95 1545 -361 749 -1142 1176 -1967 1076z m415 -235 c394 -42 726 -201
1008 -483 343 -344 512 -780 491 -1271 -31 -714 -404 -1623 -1089 -2648 -113
-169 -274 -397 -352 -497 -143 -185 -229 -290 -237 -290 -4 0 -53 55 -107 122
-657 817 -1209 1795 -1426 2523 -176 594 -191 1041 -46 1445 171 480 568 867
1050 1024 234 76 471 101 708 75z"/>
<path d="M2862 4669 c-419 -70 -725 -455 -699 -879 32 -508 506 -873 1002
-772 76 16 127 35 214 78 98 49 127 70 201 143 145 144 228 307 251 498 34
273 -63 534 -270 725 -181 168 -452 248 -699 207z m282 -249 c113 -29 190 -73
276 -160 87 -86 131 -163 160 -276 96 -375 -193 -744 -584 -744 -81 0 -201 31
-279 72 -86 45 -203 164 -249 253 -90 175 -88 382 4 558 42 81 164 203 245
245 133 70 286 88 427 52z"/>
</g>
</svg>
